<svg width="543" height="94" viewBox="0 0 543 94" fill="none" xmlns="http://www.w3.org/2000/svg">
<rect width="248" height="94" fill="#6256CA"/>
<path d="M20 75.0455V20.3332H41.505C44.9752 20.3332 47.8881 21.0424 50.2438 22.4609C52.5995 23.8793 54.3725 25.7157 55.563 27.9701C56.7535 30.1991 57.3488 32.5548 57.3488 35.0371C57.3488 38.0514 56.6016 40.635 55.1071 42.788C53.638 44.9411 51.6496 46.4102 49.1419 47.1954L49.066 45.3337C52.5615 46.1949 55.2464 47.8793 57.1208 50.387C58.9952 52.8693 59.9324 55.7696 59.9324 59.0878C59.9324 62.3046 59.2865 65.1036 57.9947 67.4846C56.7282 69.8656 54.8665 71.7273 52.4095 73.0698C49.9778 74.387 47.0269 75.0455 43.5567 75.0455H20ZM28.0549 67.4846H42.3409C44.1393 67.4846 45.7477 67.1426 47.1662 66.4587C48.61 65.7748 49.7372 64.7996 50.5477 63.5331C51.3836 62.2413 51.8016 60.7089 51.8016 58.9358C51.8016 57.2893 51.4343 55.8075 50.6997 54.4904C49.9905 53.1479 48.952 52.0967 47.5842 51.3368C46.2417 50.5516 44.6586 50.159 42.8348 50.159H28.0549V67.4846ZM28.0549 42.674H41.391C42.8601 42.674 44.1773 42.3828 45.3425 41.8002C46.533 41.1923 47.4702 40.331 48.1541 39.2165C48.8633 38.0767 49.2179 36.7089 49.2179 35.1131C49.2179 32.9854 48.5087 31.2376 47.0902 29.8698C45.6718 28.502 43.772 27.8181 41.391 27.8181H28.0549V42.674Z" fill="white"/>
<path d="M64.3398 74.8522V19H74.8607V74.8522H64.3398Z" fill="white"/>
<path d="M182.656 75.1588V29.6652H195.654V55.6616H208.653V49.1625H215.152V42.6634H228.15V49.1625H221.651V55.6616H215.152V62.1607H221.651V68.6598H228.15V75.1588H215.152V68.6598H208.653V62.1607H195.654V75.1588H182.656Z" fill="white"/>
<path d="M137.163 74.8255V68.3265H130.664V48.8292H137.163V42.3301H176.158V48.8292H143.662V68.3265H176.158V74.8255H137.163Z" fill="white"/>
<path d="M85.171 74.8255V68.3265H78.6719V61.8274H85.171V55.3283H111.167V48.8292H85.171V42.3301H117.666V48.8292H124.166V74.8255H85.171ZM91.6701 68.3265H111.167V61.8274H91.6701V68.3265Z" fill="white"/>
<path d="M510.564 90.9914L518.962 71.7842L519.082 77.4552L500.156 38.332H508.916L523.06 68.5436H520.489L533.99 38.332H542.509L518.56 90.9914H510.564Z" fill="white"/>
<path d="M473.358 75.6601C470.099 75.6601 467.369 75.1628 465.169 74.168C462.97 73.1506 461.299 71.8166 460.159 70.1662C459.045 68.4931 458.488 66.6618 458.488 64.6722C458.488 62.8183 458.882 61.1904 459.67 59.7887C460.457 58.3869 461.625 57.2 463.173 56.2278C464.721 55.233 466.623 54.4304 468.877 53.8199C470.832 53.3451 473.046 52.9269 475.517 52.5651C477.989 52.2034 480.582 51.8642 483.298 51.5477C486.041 51.2312 488.757 50.9147 491.446 50.5981L488.35 52.0225C488.404 49.1512 487.671 47.0259 486.15 45.6468C484.656 44.245 482.076 43.5442 478.41 43.5442C476.101 43.5442 473.983 43.9963 472.054 44.9007C470.126 45.7824 468.782 47.252 468.021 49.3094L460.077 47.2746C461.163 44.132 463.228 41.6337 466.269 39.7798C469.338 37.9258 473.412 36.9989 478.491 36.9989C482.429 36.9989 485.851 37.5641 488.757 38.6945C491.691 39.8024 493.836 41.5659 495.194 43.985C495.9 45.1833 496.335 46.4494 496.498 47.7833C496.661 49.1173 496.742 50.5529 496.742 52.0903V74.6427H489.206V66.2661L490.672 67.3514C488.852 70.1549 486.53 72.2462 483.706 73.6253C480.908 74.9819 477.459 75.6601 473.358 75.6601ZM474.865 69.861C477.283 69.861 479.36 69.5105 481.098 68.8096C482.837 68.0862 484.235 67.1705 485.295 66.0627C486.354 64.9548 487.046 63.8018 487.372 62.6035C487.834 61.5183 488.092 60.2974 488.146 58.9408C488.228 57.5843 488.269 56.4991 488.269 55.6852L491.039 56.533C488.35 56.8721 485.906 57.1773 483.706 57.4486C481.506 57.72 479.51 57.9913 477.717 58.2626C475.952 58.5113 474.377 58.8165 472.991 59.1782C471.824 59.5174 470.778 59.9243 469.854 60.3991C468.958 60.8739 468.239 61.4504 467.695 62.1287C467.179 62.807 466.921 63.6322 466.921 64.6044C466.921 65.554 467.206 66.4357 467.777 67.2496C468.347 68.0409 469.216 68.674 470.384 69.1488C471.552 69.6236 473.046 69.861 474.865 69.861Z" fill="white"/>
<path d="M430.077 75.6602C425.801 75.6602 422.105 74.8666 418.99 73.2795C415.903 71.6925 413.51 69.534 411.811 66.8043C410.14 64.0533 409.305 60.9638 409.305 57.5357C409.305 54.0865 410.154 51.0075 411.853 48.2989C413.553 45.5691 415.96 43.4213 419.075 41.8553C422.219 40.2683 425.943 39.4747 430.247 39.4747C434.58 39.4747 438.219 40.2683 441.165 41.8553C444.138 43.4213 446.376 45.5691 447.877 48.2989C449.406 51.0287 450.171 54.1076 450.171 57.5357C450.171 60.9638 449.406 64.0427 447.877 66.7725C446.347 69.5023 444.096 71.6713 441.122 73.2795C438.149 74.8666 434.467 75.6602 430.077 75.6602ZM431.309 69.661C434.226 69.661 436.605 69.1425 438.446 68.1057C440.287 67.0688 441.632 65.6404 442.482 63.8205C443.331 62.0007 443.756 59.9057 443.756 57.5357C443.756 55.1657 443.317 53.0707 442.439 51.2509C441.59 49.431 440.259 48.0132 438.446 46.9975C436.662 45.9818 434.382 45.4739 431.607 45.4739C428.661 45.4739 426.24 46.0135 424.343 47.0927C422.445 48.1719 421.029 49.6215 420.095 51.4413C419.188 53.2612 418.735 55.2926 418.735 57.5357C418.735 59.7999 419.188 61.8526 420.095 63.6936C421.029 65.5134 422.417 66.963 424.258 68.0422C426.127 69.1214 428.477 69.661 431.309 69.661ZM443.756 74.7079V50.0447H442.737V29H451.657V74.7079H443.756Z" fill="white"/>
<path d="M272 74.4937V29H318.622V35.4991H285.321V48.4973H311.962V54.9964H285.321V74.4937H272Z" fill="white"/>
<path d="M378.051 35.4991V29H391.372V35.4991H378.051ZM364.73 74.4937V67.9946H378.051V48.4973H371.391V41.9982H391.372V67.9946H404.692V74.4937H364.73Z" fill="white"/>
<path d="M334.332 48.4973H340.993V54.9964H334.332V74.4937H321.012V41.9982H334.332V48.4973ZM360.973 41.9982V48.4973H340.993V41.9982H360.973Z" fill="white"/>
</svg>
